<?xml version="1.0" encoding="UTF-8" standalone="no"?>
<!-- Created with Inkscape (http://www.inkscape.org/) -->

<svg
   width="32mm"
   height="32.000004mm"
   viewBox="0 0 32 32.000004"
   version="1.1"
   id="svg1"
   xmlns="http://www.w3.org/2000/svg"
   xmlns:svg="http://www.w3.org/2000/svg">
  <defs
     id="defs1" />
  <path
     d="M 16.000325,1 C 7.7160759,0.99988946 1.0002432,7.7154421 1,15.999687 0.99989683,24.284177 7.7158302,31.000111 16.000325,31 24.284558,30.999754 31.000098,24.283919 31,15.999687 30.999754,7.7157 24.284312,1.0002457 16.000325,1 Z"
     style="fill:#ffffff;fill-opacity:1;stroke-width:0.324976"
     id="path1" />
  <path
     id="path4"
     style="fill:#004583;fill-opacity:1;stroke-width:0.34664"
     d="M 16.000345,0 C 7.1638154,-1.1790934e-4 2.5941061e-4,7.1631382 0,15.999666 -1.1004894e-4,24.836456 7.1635534,32.000118 16.000345,32 24.836866,31.999738 32.00011,24.83618 32,15.999666 31.999741,7.1634134 24.836605,2.6203127e-4 16.000345,0 Z m 0.07921,2.6986657 c 0.936698,0.00262 1.686438,1.8751249 1.679036,3.4535423 v 6.812e-4 c -0.0052,0.7538939 -0.169571,1.4393854 -0.458352,1.9532354 0.510587,-0.2822041 1.195751,-0.4568982 1.949187,-0.4529285 1.584549,0.00524 3.445996,0.7634317 3.439328,1.692583 0.0039,0.9372349 -1.869544,1.6889149 -3.44204,1.6844599 -0.761925,-0.0039 -1.446434,-0.178022 -1.954598,-0.461732 0.278234,0.511177 0.454736,1.194638 0.44888,1.955947 -0.0066,1.576518 -0.765581,3.436288 -1.699357,3.439327 -0.928352,-0.0026 -1.683622,-1.867277 -1.680399,-3.450843 0.0026,-0.757838 0.181206,-1.437931 0.463764,-1.950537 -0.514924,0.279466 -1.193406,0.451422 -1.953235,0.452942 -1.575824,-0.0079 -3.4437692,-0.76727 -3.4400091,-1.7013872 0.00105,-0.9347194 1.8654691,-1.6825997 3.4508441,-1.6810669 0.754483,0.00524 1.438822,0.1759125 1.946462,0.4610514 -0.276125,-0.5070242 -0.456165,-1.191651 -0.449548,-1.9525672 0.0079,-1.5795572 0.768161,-3.444987 1.700037,-3.4427074 z m -0.01087,4.9254191 c -0.945646,-0.00262 -1.710073,0.7548503 -1.716965,1.7054486 -0.0011,0.9406016 0.761231,1.7100606 1.704781,1.7176326 0.947035,-0.0039 1.709366,-0.770257 1.708829,-1.7142525 0.0066,-0.9401433 -0.75975,-1.709772 -1.696645,-1.7088287 z m 7.125775,5.4731362 c 0.936698,0.0026 1.686452,1.875138 1.679049,3.453555 l 6.81e-4,6.68e-4 c -0.0052,0.753894 -0.170252,1.439399 -0.459033,1.953249 0.510588,-0.282204 1.195738,-0.456911 1.949174,-0.452942 1.584549,0.0052 3.446009,0.763432 3.439341,1.692583 0.0039,0.937235 -1.869544,1.688915 -3.44204,1.684461 -0.761925,-0.0039 -1.446434,-0.178704 -1.954598,-0.462414 0.278234,0.511177 0.455405,1.195319 0.449548,1.956628 -0.0066,1.576518 -0.766262,3.436288 -1.700038,3.439327 -0.928352,-0.0026 -1.683622,-1.867264 -1.680399,-3.45083 0.0026,-0.757837 0.181219,-1.437931 0.463777,-1.950536 -0.514925,0.279466 -1.19342,0.451408 -1.953249,0.452928 -1.575824,-0.0079 -3.443769,-0.76727 -3.440009,-1.701387 0.001,-0.934719 1.865469,-1.6826 3.450844,-1.681067 0.754483,0.0052 1.438835,0.175926 1.946475,0.461065 -0.276125,-0.507025 -0.455496,-1.191651 -0.44888,-1.952568 0.0079,-1.579557 0.76748,-3.445 1.699357,-3.44272 z m -14.271869,0.01559 c 0.9366979,0.0026 1.686452,1.875124 1.67905,3.453542 v 6.81e-4 c -0.0052,0.753894 -0.169572,1.438717 -0.458353,1.952567 0.510588,-0.282204 1.195058,-0.45623 1.948493,-0.45226 1.584549,0.0052 3.446678,0.76275 3.440009,1.691902 0.0039,0.937235 -1.869544,1.689596 -3.44204,1.685141 -0.761925,-0.0039 -1.446421,-0.178703 -1.954585,-0.462414 0.278235,0.511178 0.454724,1.194638 0.448867,1.955948 -0.0066,1.576517 -0.7662484,3.436969 -1.7000246,3.440008 -0.9283563,-0.0026 -1.6829578,-1.867958 -1.6797348,-3.451525 0.00262,-0.757837 0.1812186,-1.437249 0.4637765,-1.949855 -0.5149244,0.279466 -1.1941011,0.451422 -1.9539301,0.452942 -1.5758235,-0.0079 -3.4430852,-0.767271 -3.4393251,-1.701387 0.00105,-0.93472 1.8654668,-1.682613 3.4508413,-1.68108 0.7544835,0.0052 1.438154,0.175925 1.9457941,0.461064 -0.2761252,-0.507024 -0.4554834,-1.191651 -0.4488672,-1.952567 0.00786,-1.579557 0.7681484,-3.444987 1.7000249,-3.442707 z m 14.261034,4.909841 c -0.945646,-0.0026 -1.709379,0.75485 -1.716271,1.705449 -0.0011,0.940602 0.760537,1.709379 1.704087,1.716951 0.947034,-0.0039 1.709379,-0.769576 1.708842,-1.713571 0.0065,-0.940144 -0.759764,-1.709772 -1.696658,-1.708829 z m -14.2718689,0.01559 c -0.9456461,-0.0026 -1.7100605,0.754169 -1.7169519,1.704767 -0.0011,0.940602 0.7605365,1.71006 1.7040864,1.717633 0.9470348,-0.0039 1.7100474,-0.769576 1.7095104,-1.713571 0.0066,-0.940144 -0.7597505,-1.709772 -1.6966449,-1.708829 z" />
</svg>
